<svg width="1200" height="420" viewBox="0 0 1200 420" fill="none" xmlns="http://www.w3.org/2000/svg">
  <rect width="1200" height="420" rx="24" fill="#121A12"/>
  <rect x="24" y="24" width="1152" height="372" rx="20" fill="#1E2C1E" stroke="#84CC16"/>
  <text x="60" y="84" fill="#F7FEE7" font-family="Arial, sans-serif" font-size="34" font-weight="700">GoKollab Downloader</text>
  <text x="60" y="118" fill="#D9F99D" font-family="Arial, sans-serif" font-size="18">Save lesson videos, images, GIFs, and text from mixed-media course pages</text>
  <rect x="60" y="160" width="300" height="180" rx="18" fill="#283A28"/>
  <rect x="450" y="160" width="300" height="180" rx="18" fill="#283A28"/>
  <rect x="840" y="160" width="300" height="180" rx="18" fill="#283A28"/>
  <circle cx="112" cy="208" r="24" fill="#A3E635"/>
  <text x="104" y="216" fill="#1A2E05" font-family="Arial, sans-serif" font-size="18" font-weight="700">1</text>
  <circle cx="502" cy="208" r="24" fill="#F59E0B"/>
  <text x="494" y="216" fill="#451A03" font-family="Arial, sans-serif" font-size="18" font-weight="700">2</text>
  <circle cx="892" cy="208" r="24" fill="#22C55E"/>
  <text x="884" y="216" fill="#052E16" font-family="Arial, sans-serif" font-size="18" font-weight="700">3</text>
  <text x="150" y="214" fill="#F7FEE7" font-family="Arial, sans-serif" font-size="26" font-weight="700">Open the lesson</text>
  <text x="150" y="248" fill="#ECFCCB" font-family="Arial, sans-serif" font-size="18">Load the mixed-media page</text>
  <text x="150" y="274" fill="#ECFCCB" font-family="Arial, sans-serif" font-size="18">and play any visible video.</text>
  <text x="540" y="214" fill="#F7FEE7" font-family="Arial, sans-serif" font-size="26" font-weight="700">Review assets</text>
  <text x="540" y="248" fill="#ECFCCB" font-family="Arial, sans-serif" font-size="18">Choose videos, images,</text>
  <text x="540" y="274" fill="#ECFCCB" font-family="Arial, sans-serif" font-size="18">GIFs, or text exports.</text>
  <text x="930" y="214" fill="#F7FEE7" font-family="Arial, sans-serif" font-size="26" font-weight="700">Save the lesson</text>
  <text x="930" y="248" fill="#ECFCCB" font-family="Arial, sans-serif" font-size="18">Keep a local archive of</text>
  <text x="930" y="274" fill="#ECFCCB" font-family="Arial, sans-serif" font-size="18">the page content you need.</text>
  <path d="M372 250H438" stroke="#84CC16" stroke-width="6" stroke-linecap="round"/>
  <path d="M762 250H828" stroke="#84CC16" stroke-width="6" stroke-linecap="round"/>
</svg>
